<?xml version="1.0" standalone="no"?>
<!DOCTYPE svg PUBLIC "-//W3C//DTD SVG 20010904//EN"
 "http://www.w3.org/TR/2001/REC-SVG-20010904/DTD/svg10.dtd">
<svg version="1.0" xmlns="http://www.w3.org/2000/svg"
 width="1742.000000pt" height="3508.000000pt" viewBox="0 0 1742.000000 3508.000000"
 preserveAspectRatio="xMidYMid meet">

<g transform="translate(0.000000,3508.000000) scale(0.100000,-0.100000)"
fill="#000000" stroke="none">
<path d="M16775 34138 c-399 -401 -779 -784 -2356 -2373 -327 -330 -2527
-2546 -4889 -4925 -2362 -2379 -4854 -4890 -5540 -5580 -685 -690 -1794 -1808
-2465 -2483 -671 -676 -1220 -1233 -1220 -1238 0 -5 495 -507 1100 -1116 605
-610 1662 -1675 2350 -2368 5402 -5442 8566 -8628 9174 -9240 394 -396 1283
-1291 1976 -1990 692 -698 1494 -1506 1782 -1795 l523 -525 0 17033 c0 9367
-1 17032 -3 17032 -1 0 -196 -195 -432 -432z"/>
</g>
</svg>
